#!OML:ASF X:\für Bonn\!DataBase\2005_08_10_Bjorn_Final\c3d\bjorn.ASF
:FULLY-SPECIFIED
:DEGREES
139
root 15.6697 18.3451 0.910655 166.819 -104.703 -131.628
lowerback 67.3124 -3.73252 12.9641
upperback 17.0571 0.892274 0.291165
thorax -1.29529 0.36834 -5.25577
lowerneck 7.05261 -7.60609 12.3205
upperneck -20.6085 -8.97068 0.0956622
head -8.16044 -5.44272 -1.08575
rclavicle -1.33583e-013 -1.11319e-014
rhumerus 67.8427 -13.4387 -47.5167
rradius 17.884
rwrist -11.5849
rhand -24.9576 12.8407
rfingers 7.12502
rthumb 1.55249 -17.1334
lclavicle -1.33583e-013 -1.11319e-014
lhumerus -11.6428 -33.9603 81.9911
lradius 55.3167
lwrist -3.36918
lhand -38.7695 -13.7244
lfingers 7.12502
lthumb -11.7814 15.9242
rfemur -65.9211 -6.65008 1.74834
rtibia 53.3259
rfoot -16.9505 -3.11595
rtoes -12.465
lfemur -64.2681 3.51382 -32.0346
ltibia 47.6288
lfoot -9.66537 1.86609
ltoes -16.2908
140
root 15.6575 18.3417 0.930595 166.933 -104.571 -131.766
lowerback 68.0579 -3.81112 12.8995
upperback 16.8896 0.871205 0.240036
thorax -1.45506 0.344702 -5.25101
lowerneck 7.01505 -7.55093 12.2084
upperneck -20.6358 -8.91883 0.0997291
head -8.15252 -5.41324 -1.07436
rclavicle -3.18055e-015 2.22639e-014
rhumerus 68.3023 -13.563 -47.9374
rradius 17.9038
rwrist -11.3083
rhand -25.456 12.8856
rfingers 7.12502
rthumb 1.07117 -17.0915
lclavicle -3.18055e-015 2.22639e-014
lhumerus -11.5528 -33.6046 81.8217
lradius 55.5653
lwrist -3.26025
lhand -39.4749 -13.7513
lfingers 7.12502
lthumb -12.4615 15.8572
rfemur -65.87 -6.46771 1.70859
rtibia 53.3453
rfoot -17.0499 -3.16746
rtoes -12.3585
lfemur -64.3082 3.4849 -31.8869
ltibia 47.8463
lfoot -9.78786 1.95324
ltoes -16.4723
141
root 15.6457 18.3373 0.950899 167.017 -104.442 -131.845
lowerback 68.731 -3.88234 12.8286
upperback 16.7358 0.842509 0.178692
thorax -1.60092 0.320849 -5.25575
lowerneck 7.02962 -7.50845 12.1419
upperneck -20.6961 -8.87897 0.0626096
head -8.17027 -5.38977 -1.07912
rclavicle -5.40694e-014 -2.8625e-014
rhumerus 68.7102 -13.6582 -48.2507
rradius 17.9456
rwrist -11.1915
rhand -25.9549 12.9614
rfingers 7.12502
rthumb 0.589345 -17.0175
lclavicle -5.40694e-014 -2.8625e-014
lhumerus -11.4479 -33.2585 81.6568
lradius 55.7779
lwrist -3.15425
lhand -40.0353 -13.8043
lfingers 7.12502
lthumb -13.0019 15.7706
rfemur -65.8666 -6.33115 1.67678
rtibia 53.3665
rfoot -17.1126 -3.16073
rtoes -12.0162
lfemur -64.377 3.43081 -31.7399
ltibia 48.0581
lfoot -9.90774 2.06588
ltoes -16.5764
142
root 15.6352 18.3353 0.971924 167.231 -104.308 -132.09
lowerback 69.4437 -3.9692 12.7935
upperback 16.5516 0.830141 0.128686
thorax -1.77007 0.301849 -5.26638
lowerneck 7.03587 -7.47902 12.0338
upperneck -20.6842 -8.85531 0.0611831
head -8.15926 -5.37041 -1.06603
rclavicle -5.08889e-014 -8.11041e-014
rhumerus 69.0268 -13.7094 -48.4121
rradius 18.0124
rwrist -11.1267
rhand -26.4836 13.0301
rfingers 7.12502
rthumb 0.0786245 -16.9496
lclavicle -5.08889e-014 -8.11041e-014
lhumerus -11.3805 -32.9593 81.5304
lradius 56.0148
lwrist -2.9641
lhand -40.439 -13.8445
lfingers 7.12502
lthumb -13.3909 15.7051
rfemur -65.8187 -6.20743 1.71317
rtibia 53.3754
rfoot -17.1615 -3.1769
rtoes -12.0652
lfemur -64.4113 3.364 -31.5398
ltibia 48.2683
lfoot -10.0211 2.21417
ltoes -16.9026
